<svg width="651" height="353" viewBox="0 0 651 353" fill="none" xmlns="http://www.w3.org/2000/svg">
<path d="M0 1.29004H49.96V128.02C49.96 138.54 54.25 143.8 62.84 143.8C64.94 143.8 67.22 143.45 69.68 142.75C72.13 142.05 74.41 141.09 76.52 139.86L82.83 176.67C76.87 179.48 70.16 181.67 62.72 183.24C55.27 184.82 48.21 185.61 41.55 185.61C28.23 185.61 17.97 182.19 10.79 175.36C3.59 168.51 0 158.61 0 145.64V1.29004Z" fill="white"/>
<path d="M568.02 167.96H617.98V294.69C617.98 305.21 622.27 310.47 630.86 310.47C632.96 310.47 635.24 310.12 637.7 309.42C640.15 308.72 642.43 307.76 644.54 306.53L650.85 343.34C644.89 346.15 638.18 348.34 630.74 349.91C623.29 351.49 616.23 352.28 609.57 352.28C596.25 352.28 585.99 348.86 578.81 342.03C571.62 335.19 568.03 325.29 568.03 312.32V167.96H568.02Z" fill="white"/>
<path d="M340.68 175.35C333.67 178.33 326.17 180.83 318.2 182.84C310.22 184.85 302.38 185.86 294.67 185.86C289.06 185.86 283.71 185.16 278.63 183.76C273.54 182.36 269.12 180.08 265.35 176.92C261.58 173.77 258.6 169.65 256.41 164.56C254.22 159.48 253.12 153.17 253.12 145.63V82.26H236.03V44.66H253.12V1.28003H303.08V44.66H330.16V82.26H303.08V128.01C303.08 132.57 304.04 135.77 305.97 137.61C307.9 139.45 310.53 140.37 313.86 140.37C316.31 140.37 319.12 139.98 322.27 139.19C325.43 138.4 328.58 137.31 331.74 135.9L340.68 175.35Z" fill="white"/>
<path d="M338.31 68.86C354.35 47.3 360.66 28.37 360.13 0.76001H396.68C396.94 35.2 375.12 63.6 354.87 78.59L338.31 68.86Z" fill="white"/>
<path d="M450.86 185.6C438.77 185.6 426.93 183.63 415.37 179.68C403.8 175.74 393.98 170 385.92 162.46L403.01 132.49C411.6 138.28 419.88 142.74 427.86 145.9C435.84 149.05 443.15 150.63 449.82 150.63C456.83 150.63 460.34 148.44 460.34 144.06C460.34 141.61 458.98 139.5 456.27 137.75C453.55 136 448.25 133.98 440.36 131.7C430.54 128.9 422.35 126.14 415.78 123.42C409.21 120.7 403.86 117.77 399.74 114.61C395.62 111.46 392.68 107.95 390.93 104.09C389.18 100.24 388.3 95.68 388.3 90.42C388.3 83.41 389.7 76.92 392.51 70.96C395.31 65 399.21 59.83 404.21 55.45C409.21 51.07 415.16 47.69 422.09 45.33C429.01 42.96 436.59 41.78 444.83 41.78C454.99 41.78 464.68 43.1 473.88 45.72C483.08 48.35 492.33 53.7 501.62 61.76L482.69 91.73C474.1 86.12 466.91 82.13 461.13 79.77C455.34 77.4 449.91 76.22 444.83 76.22C441.85 76.22 439.39 76.79 437.47 77.93C435.54 79.07 434.58 80.87 434.58 83.32C434.58 85.95 435.98 88.1 438.79 89.76C441.59 91.43 447.11 93.31 455.35 95.41C465.34 98.04 473.76 100.8 480.59 103.69C487.43 106.58 492.9 109.74 497.02 113.16C501.14 116.58 504.07 120.44 505.83 124.73C507.58 129.03 508.46 133.98 508.46 139.59C508.46 146.78 507.14 153.18 504.52 158.78C501.89 164.39 498.08 169.21 493.08 173.24C488.08 177.27 482.04 180.34 474.94 182.44C467.82 184.55 459.8 185.6 450.86 185.6Z" fill="white"/>
<path d="M232.95 127.88L188.92 127.81C188.6 132.46 186.46 136.63 182.49 140.3C178.52 143.98 173.93 146.56 168.7 148.05C163.14 149.63 157.55 149.53 151.94 147.75C146.34 145.98 142.27 141.62 139.76 134.68L233.08 108.16C232.84 106.04 232.48 103.64 231.99 100.95C231.5 98.27 230.9 95.66 230.18 93.13C227.59 84.02 223.55 75.74 218.06 68.28C212.57 60.82 205.85 54.81 197.9 50.23C189.94 45.66 180.88 42.77 170.7 41.56C160.51 40.35 149.52 41.43 137.72 44.78C125.74 48.18 115.79 53.06 107.85 59.42C99.9 65.78 93.76 73.03 89.43 81.19C85.1 89.35 82.59 98.17 81.92 107.65C81.24 117.14 82.27 126.69 85 136.3C87.54 145.24 91.56 153.29 97.06 160.48C102.57 167.66 109.28 173.5 117.21 177.99C125.14 182.48 134.17 185.24 144.3 186.28C154.44 187.31 165.32 186.18 176.96 182.87C179.04 182.28 181.07 181.65 183.04 180.97V231.85C179.01 224.49 173.27 218.8 165.82 214.76C158.37 210.73 150.17 208.71 141.23 208.71C132.29 208.71 124.14 210.51 116.78 214.1C109.42 217.7 103.06 222.69 97.72 229.09C92.37 235.49 88.21 243.07 85.23 251.83C82.25 260.6 80.76 270.07 80.76 280.23C80.76 290.75 82.38 300.44 85.62 309.29C88.86 318.14 93.38 325.76 99.16 332.16C104.95 338.56 111.83 343.51 119.8 347.02C127.78 350.52 136.5 352.27 145.97 352.27C155.08 352.27 163.67 350.34 171.73 346.49C179.79 342.64 186.19 336.5 190.93 328.08L191.98 333.08C194.61 345.88 204.42 352.27 221.43 352.27C226.86 352.27 233.87 351.4 242.46 349.65V307.58C238.95 307.23 236.5 306.13 235.1 304.29C233.69 302.45 233 299.16 233 294.43V127.88H232.95ZM133.32 88.94C136.14 84.14 140.59 80.87 146.66 79.14C152.73 77.42 158.23 77.86 163.16 80.46C168.1 83.07 171.89 87.46 174.56 93.63L130.55 106.13C129.57 99.49 130.49 93.76 133.32 88.94ZM183.3 296.01C176.64 305.47 168.75 310.2 159.64 310.2C151.4 310.2 144.78 307.58 139.79 302.32C134.79 297.06 132.29 290.05 132.29 281.28C132.29 277.08 132.95 273.13 134.27 269.45C135.58 265.77 137.33 262.53 139.52 259.72C141.71 256.92 144.34 254.73 147.41 253.15C150.48 251.57 153.85 250.78 157.53 250.78C162.79 250.78 167.79 252.67 172.52 256.44C177.25 260.21 180.85 265.16 183.3 271.29V296.01Z" fill="white"/>
<path d="M324.86 352.27C312.77 352.27 301.99 350.39 292.52 346.62C283.05 342.85 275.12 337.73 268.72 331.24C262.32 324.76 257.46 317.31 254.13 308.89C250.8 300.48 249.13 291.63 249.13 282.33C249.13 272.34 250.75 262.87 253.99 253.93C257.23 244.99 262.05 237.19 268.45 230.53C274.85 223.87 282.73 218.57 292.11 214.62C301.49 210.68 312.4 208.7 324.85 208.7C337.12 208.7 347.99 210.67 357.45 214.62C366.92 218.56 374.84 223.82 381.25 230.4C387.65 236.97 392.46 244.6 395.71 253.27C398.95 261.95 400.57 271.02 400.57 280.48C400.57 283.11 400.44 285.78 400.18 288.5C399.92 291.22 399.61 293.63 399.26 295.73H302.24C302.77 303.09 305.48 308.4 310.39 311.64C315.29 314.89 320.64 316.51 326.43 316.51C331.86 316.51 336.99 315.29 341.81 312.83C346.63 310.38 349.83 306.96 351.41 302.57L393.74 314.66C388.13 325.7 379.5 334.73 367.84 341.74C356.19 348.77 341.86 352.27 324.86 352.27ZM346.95 265.77C346.07 259.11 343.62 253.85 339.59 249.99C335.56 246.14 330.39 244.21 324.08 244.21C317.77 244.21 312.6 246.14 308.57 249.99C304.54 253.85 302.08 259.11 301.21 265.77H346.95Z" fill="white"/>
<path d="M455.56 352.27C448.72 352.27 442.32 351.13 436.37 348.85C430.41 346.57 425.28 343.46 420.99 339.52C416.69 335.58 413.32 330.89 410.87 325.45C408.41 320.02 407.19 314.14 407.19 307.83C407.19 300.82 408.68 294.42 411.66 288.64C414.64 282.86 418.76 277.86 424.02 273.65C429.28 269.44 435.54 266.2 442.82 263.92C450.09 261.64 458.11 260.5 466.88 260.5C478.09 260.5 487.39 262.25 494.75 265.76V261.55C494.75 255.07 492.86 250.24 489.1 247.09C485.33 243.94 479.24 242.36 470.83 242.36C462.94 242.36 455.66 243.63 449.01 246.17C442.35 248.71 435.34 252.44 427.98 257.34L413.52 226.31C431.75 214.57 452.52 208.69 475.83 208.69C497.92 208.69 514.92 213.6 526.84 223.41C538.76 233.23 544.72 247.95 544.72 267.58V294.4C544.72 299.13 545.42 302.42 546.82 304.26C548.22 306.1 550.67 307.2 554.18 307.55V349.62C550.15 350.5 546.33 351.15 542.74 351.59C539.15 352.02 535.95 352.25 533.14 352.25C524.2 352.25 517.41 350.63 512.76 347.39C508.11 344.15 505.09 339.37 503.69 333.06L502.64 328.06C496.5 335.95 489.4 341.95 481.34 346.07C473.26 350.21 464.67 352.27 455.56 352.27ZM470.55 316.51C473.53 316.51 476.6 316.03 479.75 315.06C482.9 314.1 485.71 312.83 488.16 311.25C490.09 309.85 491.66 308.32 492.89 306.65C494.12 304.99 494.73 303.28 494.73 301.52V291.27C491.75 290.22 488.51 289.34 485 288.64C481.49 287.94 478.34 287.59 475.54 287.59C469.4 287.59 464.32 289.08 460.29 292.06C456.26 295.04 454.24 298.81 454.24 303.37C454.24 307.23 455.77 310.38 458.84 312.84C461.91 315.29 465.82 316.51 470.55 316.51Z" fill="white"/>
</svg>
